<svg width="48" height="48" viewBox="0 0 48 48" fill="none" xmlns="http://www.w3.org/2000/svg">
    <mask id="mask0_524_9466" style="mask-type:alpha" maskUnits="userSpaceOnUse" x="0" y="0" width="48" height="48">
        <rect width="48" height="48" fill="#FF0606"/>
    </mask>
    <g mask="url(#mask0_524_9466)">
        <path fill-rule="evenodd" clip-rule="evenodd" d="M6 22.5C6.82843 22.5 7.5 23.1716 7.5 24V34C7.5 35.3807 8.61929 36.5 10 36.5H38C39.3807 36.5 40.5 35.3807 40.5 34V24C40.5 23.1716 41.1716 22.5 42 22.5C42.8284 22.5 43.5 23.1716 43.5 24V34C43.5 37.0376 41.0376 39.5 38 39.5H10C6.96243 39.5 4.5 37.0376 4.5 34V24C4.5 23.1716 5.17157 22.5 6 22.5ZM25.5 12.4792V31.0713C25.5 31.8997 24.8284 32.5713 24 32.5713C23.1716 32.5713 22.5 31.8997 22.5 31.0713L22.5 12.6213L18.0606 17.0607C17.4749 17.6464 16.5251 17.6464 15.9393 17.0607C15.3535 16.4749 15.3535 15.5251 15.9393 14.9393L22.3033 8.57538C23.2796 7.59907 24.8625 7.59907 25.8388 8.57538L32.2028 14.9393C32.7886 15.5251 32.7886 16.4749 32.2028 17.0607C31.617 17.6464 30.6672 17.6464 30.0815 17.0607L25.5 12.4792Z" fill="#11141A"/>
    </g>
</svg>
